<?xml version="1.0" encoding="utf-8"?>
<!-- Generator: Adobe Illustrator 16.0.0, SVG Export Plug-In . SVG Version: 6.00 Build 0)  -->
<!DOCTYPE svg PUBLIC "-//W3C//DTD SVG 1.0//EN" "http://www.w3.org/TR/2001/REC-SVG-20010904/DTD/svg10.dtd">
<svg version="1.0" id="Layer_1" xmlns="http://www.w3.org/2000/svg" xmlns:xlink="http://www.w3.org/1999/xlink" x="0px" y="0px"
	 width="1736.775px" height="600px" viewBox="0 0 1736.775 600" enable-background="new 0 0 1736.775 600" xml:space="preserve">
<path fill="none" d="M707.111,444.523c-1.261,0-2.206,0.727-2.206,1.987c0,1.24,0.945,1.988,2.206,1.988
	c1.257,0,2.204-0.748,2.204-1.988C709.315,445.25,708.369,444.523,707.111,444.523z"/>
<path fill="none" d="M863.228,267.175h-2.58v3.7h2.58c1.357,0,2.126-0.728,2.126-1.849
	C865.354,267.903,864.585,267.175,863.228,267.175z"/>
<path fill="none" d="M707.111,442.815c0.983,0,1.848-0.633,1.848-1.736c0-1.139-0.865-1.768-1.848-1.768
	c-0.985,0-1.852,0.629-1.852,1.768C705.26,442.183,706.126,442.815,707.111,442.815z"/>
<path fill="none" d="M689.785,269.801c0-1.123-0.769-1.852-2.125-1.852h-2.58v3.7h2.58
	C689.017,271.649,689.785,270.922,689.785,269.801z"/>
<path fill="none" d="M867.262,328.677c0-2.56-1.396-4.408-3.523-4.408c-2.125,0-3.501,1.849-3.501,4.408
	c0,2.558,1.376,4.407,3.501,4.407C865.867,333.084,867.262,331.235,867.262,328.677z"/>
<path fill="none" d="M1177.064,214.771c-1.38,0-2.284,0.944-2.284,2.402c0,1.397,0.904,2.341,2.284,2.341
	c1.338,0,2.242-0.944,2.242-2.341C1179.307,215.735,1178.402,214.771,1177.064,214.771z"/>
<path fill="none" d="M1005.92,271.446c0-2.599-1.358-4.232-3.896-4.232h-1.95v8.442h1.95
	C1004.562,275.656,1005.92,274.023,1005.92,271.446z"/>
<path fill="none" d="M1512.157,210.562h-1.949v8.441h1.949c2.539,0,3.895-1.633,3.895-4.213
	C1516.052,212.194,1514.696,210.562,1512.157,210.562z"/>
<path fill="none" d="M1677.466,327.031c0-1.122-0.769-1.852-2.126-1.852h-2.579v3.703h2.579
	C1676.697,328.882,1677.466,328.152,1677.466,327.031z"/>
<path fill="none" d="M1522.526,558.986c-1.26,0-2.206,0.727-2.206,1.987c0,1.24,0.946,1.988,2.206,1.988
	c1.259,0,2.206-0.748,2.206-1.988C1524.732,559.713,1523.785,558.986,1522.526,558.986z"/>
<path fill="none" d="M1541.88,496.735c-2.127,0-3.504,1.852-3.504,4.412c0,2.557,1.377,4.408,3.504,4.408
	c2.125,0,3.521-1.852,3.521-4.408C1545.4,498.587,1544.005,496.735,1541.88,496.735z"/>
<path fill="none" d="M1541.88,96.116c-2.127,0-3.504,1.852-3.504,4.41c0,2.557,1.377,4.408,3.504,4.408
	c2.125,0,3.521-1.852,3.521-4.408C1545.4,97.968,1544.005,96.116,1541.88,96.116z"/>
<path fill="none" d="M1680.243,441.495c0-1.121-0.77-1.852-2.126-1.852h-2.58v3.703h2.58
	C1679.474,443.347,1680.243,442.616,1680.243,441.495z"/>
<path fill="none" d="M1867.401,325.042c-2.128,0-3.504,1.851-3.504,4.41c0,2.557,1.376,4.408,3.504,4.408
	c2.123,0,3.521-1.852,3.521-4.408C1870.922,326.893,1869.524,325.042,1867.401,325.042z"/>
<path fill="none" d="M495.584,327.032c0-1.124-0.768-1.852-2.124-1.852h-2.582v3.7h2.582
	C494.816,328.881,495.584,328.153,495.584,327.032z"/>
<path fill="none" d="M1093.034,386.465c-1.38,0-2.285,0.945-2.285,2.401c0,1.397,0.905,2.341,2.285,2.341
	c1.338,0,2.242-0.943,2.242-2.341C1095.276,387.429,1094.372,386.465,1093.034,386.465z"/>
<path fill="none" d="M1522.526,557.274c0.983,0,1.852-0.629,1.852-1.732c0-1.139-0.868-1.771-1.852-1.771s-1.85,0.632-1.85,1.771
	C1520.677,556.646,1521.543,557.274,1522.526,557.274z"/>
<polygon fill="none" points="1079.031,44.22 1082.336,44.22 1080.684,39.754 "/>
<path fill="none" d="M924.82,441.495c0-1.121-0.767-1.852-2.126-1.852h-2.577v3.699h2.577
	C924.054,443.343,924.82,442.616,924.82,441.495z"/>
<path fill="none" d="M860.603,100.526c0-2.599-1.355-4.232-3.895-4.232h-1.949v8.441h1.949
	C859.247,104.735,860.603,103.104,860.603,100.526z"/>
<path fill="none" d="M728.361,98.106c0-1.124-0.767-1.852-2.125-1.852h-2.578v3.7h2.578
	C727.595,99.955,728.361,99.228,728.361,98.106z"/>
<path fill="none" d="M803.852,496.756c-1.79,0-2.576,1.852-2.576,4.392c0,2.535,0.786,4.387,2.576,4.387
	c1.773,0,2.559-1.852,2.559-4.387C806.41,498.607,805.625,496.756,803.852,496.756z"/>
<polygon fill="none" points="962.913,210.673 961.261,215.139 964.563,215.139 "/>
<path fill="none" d="M925.758,162.165c2.126,0,3.523-1.85,3.523-4.409c0-2.557-1.397-4.407-3.523-4.407
	c-2.125,0-3.501,1.85-3.501,4.407C922.257,160.315,923.633,162.165,925.758,162.165z"/>
<path fill="none" d="M862.164,385.908c0,2.539,0.788,4.387,2.578,4.387c1.772,0,2.561-1.848,2.561-4.387
	c0-2.54-0.788-4.388-2.561-4.388C862.952,381.521,862.164,383.368,862.164,385.908z"/>
<path fill="none" d="M1694.112,96.254h-2.58v4.037h2.58c1.416,0,2.145-0.847,2.145-2.009
	C1696.257,97.082,1695.528,96.254,1694.112,96.254z"/>
<path fill="none" d="M1070.312,443.695c-1.378,0-2.282,0.947-2.282,2.4c0,1.4,0.904,2.344,2.282,2.344
	c1.34,0,2.244-0.943,2.244-2.344C1072.557,444.66,1071.652,443.695,1070.312,443.695z"/>
<path fill="none" d="M537.341,442.815c0.985,0,1.852-0.633,1.852-1.736c0-1.139-0.866-1.768-1.852-1.768
	c-0.981,0-1.851,0.629-1.851,1.768C535.49,442.183,536.36,442.815,537.341,442.815z"/>
<path fill="none" d="M579.406,553.852c-1.338,0-2.243,0.943-2.243,2.34c0,1.439,0.905,2.403,2.243,2.403
	c1.378,0,2.283-0.946,2.283-2.403C581.688,554.795,580.784,553.852,579.406,553.852z"/>
<path fill="none" d="M1749.386,40.874c0-1.123-0.769-1.85-2.124-1.85h-2.581v3.699h2.581
	C1748.617,42.724,1749.386,41.997,1749.386,40.874z"/>
<polygon fill="none" points="934.465,272.371 932.812,267.905 931.16,272.371 "/>
<path fill="none" d="M537.341,444.523c-1.257,0-2.204,0.727-2.204,1.987c0,1.24,0.947,1.988,2.204,1.988
	c1.261,0,2.206-0.748,2.206-1.988C539.547,445.25,538.603,444.523,537.341,444.523z"/>
<rect x="755.51" y="230.48" fill="#FF675D" width="215.688" height="2.683"/>
<rect x="787.971" y="288.515" fill="#FF675D" width="221.041" height="2.683"/>
<rect x="720.22" y="346.548" fill="#FF675D" width="223.942" height="2.683"/>
<rect x="787.971" y="404.583" fill="#FF675D" width="221.041" height="2.683"/>
<polygon fill="#FFFFFF" points="1391.878,554.145 1395.892,554.145 1395.892,564.415 1397.937,564.415 1397.937,554.145 
	1401.95,554.145 1401.95,552.339 1391.878,552.339 "/>
<path fill="#FFFFFF" d="M1134.641,559.93h2.637c-0.257,1.694-1.356,2.875-3.188,2.875c-2.244,0-3.622-1.869-3.622-4.426
	c0-2.561,1.397-4.392,3.544-4.392c1.613,0,2.419,0.828,2.911,2.128h2.044c-0.472-2.4-2.182-3.972-4.955-3.972
	c-3.149,0-5.606,2.515-5.606,6.235c0,3.716,2.437,6.234,5.685,6.234c2.952,0,5.134-2.145,5.134-5.491v-0.939h-4.583V559.93z"/>
<path fill="#FFFFFF" d="M906.782,559.93h2.634c-0.255,1.694-1.357,2.875-3.188,2.875c-2.243,0-3.621-1.869-3.621-4.426
	c0-2.561,1.397-4.392,3.542-4.392c1.614,0,2.421,0.828,2.912,2.128h2.045c-0.474-2.4-2.184-3.972-4.957-3.972
	c-3.148,0-5.604,2.515-5.604,6.235c0,3.716,2.437,6.234,5.684,6.234c2.951,0,5.133-2.145,5.133-5.491v-0.939h-4.579V559.93z"/>
<path fill="#FFFFFF" d="M579.425,552.144c-2.635,0-4.13,1.886-4.13,4.087c0,2.148,1.474,4.014,3.914,4.014
	c1.28,0,2.342-0.646,2.775-1.551v0.216c0,2.026-1.062,4.031-2.697,4.031c-0.983,0-1.574-0.531-1.85-1.397h-2.043
	c0.491,1.949,1.689,3.07,3.893,3.07c2.777,0,4.506-2.734,4.506-6.49c0-1.498-0.216-2.599-0.73-3.66
	C582.26,552.849,580.901,552.144,579.425,552.144z M579.406,558.595c-1.338,0-2.243-0.964-2.243-2.403
	c0-1.396,0.905-2.34,2.243-2.34c1.378,0,2.283,0.943,2.283,2.34C581.688,557.648,580.784,558.595,579.406,558.595z"/>
<polygon fill="#FFFFFF" points="1046.462,557.316 1040.38,557.316 1040.38,552.339 1038.337,552.339 1038.337,564.415 
	1040.38,564.415 1040.38,559.122 1046.462,559.122 1046.462,564.415 1048.507,564.415 1048.507,552.339 1046.462,552.339 "/>
<path fill="#FFFFFF" d="M699.11,560.247c0,1.712-0.669,2.498-2.045,2.498c-1.162,0-1.792-0.688-1.928-1.848h-2.125
	c0.176,2.145,1.495,3.716,4.092,3.716c2.477,0,4.048-1.494,4.048-4.366v-7.908h-2.042V560.247z"/>
<polygon fill="#FFFFFF" points="414.315,552.339 411.739,552.339 406.723,558.12 406.723,552.339 404.678,552.339 404.678,564.415 
	406.723,564.415 406.723,560.659 407.961,559.241 411.935,564.415 414.492,564.415 409.437,557.826 "/>
<polygon fill="#FFFFFF" points="1352.414,503.484 1346.588,495.107 1344.663,495.107 1344.663,507.184 1346.628,507.184 
	1346.628,498.391 1352.806,507.184 1354.379,507.184 1354.379,495.107 1352.414,495.107 "/>
<path fill="#FFFFFF" d="M499.015,502.698h2.634c-0.255,1.694-1.355,2.875-3.184,2.875c-2.245,0-3.624-1.873-3.624-4.426
	c0-2.561,1.399-4.392,3.545-4.392c1.61,0,2.417,0.828,2.91,2.128h2.043c-0.47-2.403-2.181-3.976-4.953-3.976
	c-3.151,0-5.606,2.519-5.606,6.239c0,3.716,2.438,6.231,5.685,6.231c2.95,0,5.131-2.142,5.131-5.484v-0.946h-4.581V502.698z"/>
<polygon fill="#FFFFFF" points="635.397,500.515 632.19,495.107 629.969,495.107 634.335,502.366 634.335,507.184 636.358,507.184 
	636.358,502.366 640.745,495.107 638.581,495.107 "/>
<path fill="#FFFFFF" d="M990.783,499.219c-0.925,0-1.691,0.332-2.064,0.629v-2.935h5.135v-1.806h-6.807v6.805h1.553
	c0.414-0.514,1.083-0.946,1.969-0.946c1.318,0,2.125,0.964,2.125,2.326c0,1.355-0.807,2.319-2.087,2.319
	c-1.357,0-2.085-0.824-2.242-2.047h-1.986c0.197,2.322,1.829,3.814,4.229,3.814c2.344,0,3.994-1.688,3.994-4.087
	C994.601,500.867,993.048,499.219,990.783,499.219z"/>
<rect x="1200.418" y="495.107" fill="#FFFFFF" width="2.043" height="12.076"/>
<path fill="#FFFFFF" d="M803.852,494.908c-2.733,0-4.562,2.557-4.562,6.239c0,3.678,1.829,6.231,4.562,6.231
	c2.737,0,4.564-2.554,4.564-6.231C808.416,497.465,806.588,494.908,803.852,494.908z M803.852,505.534
	c-1.79,0-2.576-1.852-2.576-4.387c0-2.54,0.786-4.392,2.576-4.392c1.773,0,2.559,1.852,2.559,4.392
	C806.41,503.683,805.625,505.534,803.852,505.534z"/>
<path fill="#FFFFFF" d="M709.059,443.695c1.021-0.391,1.846-1.355,1.846-2.714c0-2.124-1.768-3.301-3.793-3.301
	c-2.03,0-3.797,1.177-3.797,3.301c0,1.358,0.826,2.323,1.848,2.714c-1.181,0.297-2.222,1.359-2.222,2.973
	c0,2.184,1.848,3.482,4.171,3.482c2.321,0,4.167-1.299,4.167-3.482C711.278,445.055,710.237,443.992,709.059,443.695z
	 M707.111,439.312c0.983,0,1.848,0.629,1.848,1.768c0,1.104-0.865,1.736-1.848,1.736c-0.985,0-1.852-0.633-1.852-1.736
	C705.26,439.94,706.126,439.312,707.111,439.312z M707.111,448.499c-1.261,0-2.206-0.748-2.206-1.988
	c0-1.261,0.945-1.987,2.206-1.987c1.257,0,2.204,0.727,2.204,1.987C709.315,447.751,708.369,448.499,707.111,448.499z"/>
<path fill="#FFFFFF" d="M539.291,443.695c1.023-0.391,1.848-1.355,1.848-2.714c0-2.124-1.768-3.301-3.797-3.301
	c-2.026,0-3.793,1.177-3.793,3.301c0,1.358,0.825,2.323,1.845,2.714c-1.177,0.297-2.218,1.359-2.218,2.973
	c0,2.184,1.844,3.482,4.167,3.482c2.323,0,4.171-1.299,4.171-3.482C541.512,445.055,540.471,443.992,539.291,443.695z
	 M537.341,439.312c0.985,0,1.852,0.629,1.852,1.768c0,1.104-0.866,1.736-1.852,1.736c-0.981,0-1.851-0.633-1.851-1.736
	C535.49,439.94,536.36,439.312,537.341,439.312z M537.341,448.499c-1.257,0-2.204-0.748-2.204-1.988
	c0-1.261,0.947-1.987,2.204-1.987c1.261,0,2.206,0.727,2.206,1.987C539.547,447.751,538.603,448.499,537.341,448.499z"/>
<path fill="#FFFFFF" d="M1374.358,445.467h2.634c-0.255,1.694-1.355,2.875-3.186,2.875c-2.245,0-3.621-1.869-3.621-4.426
	c0-2.561,1.396-4.388,3.542-4.388c1.614,0,2.419,0.824,2.91,2.124h2.047c-0.474-2.4-2.186-3.972-4.957-3.972
	c-3.149,0-5.606,2.515-5.606,6.235c0,3.717,2.438,6.234,5.686,6.234c2.949,0,5.133-2.145,5.133-5.49v-0.94h-4.581V445.467z"/>
<path fill="#FFFFFF" d="M1245.39,443.775c0.963-0.412,1.572-1.453,1.572-2.714c0-1.967-1.396-3.381-3.776-3.381
	c-2.262,0-3.775,1.551-4.032,3.657h2.007c0.078-1.062,0.767-1.89,2.047-1.89c1.159,0,1.85,0.769,1.85,1.732
	c0,1.142-0.866,1.75-2.028,1.75h-0.707v1.712h0.767c1.278,0,2.184,0.727,2.184,1.886c0,1.125-0.865,1.872-2.086,1.872
	c-1.396,0-2.183-0.845-2.321-2.067h-1.985c0.136,2.264,1.848,3.817,4.328,3.817c2.497,0,3.99-1.593,3.99-3.64
	C1247.197,445.39,1246.628,444.286,1245.39,443.775z"/>
<path fill="#FFFFFF" d="M1070.508,442.047c-1.278,0-2.34,0.646-2.773,1.551v-0.217c0-2.022,1.062-4.031,2.695-4.031
	c0.985,0,1.575,0.531,1.852,1.397h2.043c-0.49-1.949-1.688-3.066-3.895-3.066c-2.773,0-4.503,2.731-4.503,6.49
	c0,1.495,0.217,2.595,0.725,3.66c0.808,1.61,2.166,2.319,3.641,2.319c2.639,0,4.132-1.886,4.132-4.094
	C1074.424,443.912,1072.95,442.047,1070.508,442.047z M1070.312,448.439c-1.378,0-2.282-0.943-2.282-2.344
	c0-1.453,0.904-2.4,2.282-2.4c1.34,0,2.244,0.965,2.244,2.4C1072.557,447.496,1071.652,448.439,1070.312,448.439z"/>
<polygon fill="#FFFFFF" points="597.065,386.055 593.86,380.644 591.639,380.644 596.005,387.902 596.005,392.721 598.028,392.721 
	598.028,387.902 602.415,380.644 600.251,380.644 "/>
<polygon fill="#FFFFFF" points="436.228,390.064 432.806,380.644 430.661,380.644 435.224,392.721 437.172,392.721 441.734,380.644 
	439.651,380.644 "/>
<path fill="#FFFFFF" d="M1093.229,384.814c-1.278,0-2.342,0.649-2.775,1.551v-0.217c0-2.022,1.062-4.03,2.696-4.03
	c0.983,0,1.574,0.53,1.85,1.396h2.046c-0.493-1.948-1.691-3.068-3.896-3.068c-2.775,0-4.504,2.735-4.504,6.49
	c0,1.497,0.217,2.599,0.729,3.663c0.803,1.611,2.162,2.319,3.638,2.319c2.638,0,4.131-1.889,4.131-4.091
	C1097.144,386.682,1095.669,384.814,1093.229,384.814z M1093.034,391.207c-1.38,0-2.285-0.943-2.285-2.341
	c0-1.456,0.905-2.401,2.285-2.401c1.338,0,2.242,0.964,2.242,2.401C1095.276,390.264,1094.372,391.207,1093.034,391.207z"/>
<polygon fill="#FFFFFF" points="345.939,328.802 340.647,328.802 340.647,325.22 346.313,325.22 346.313,323.412 338.604,323.412 
	338.604,335.49 340.647,335.49 340.647,330.591 345.939,330.591 "/>
<polygon fill="#FFFFFF" points="1202.673,328.448 1200.788,328.448 1200.788,331.281 1197.562,331.281 1201.947,323.412 
	1199.884,323.412 1195.339,331.557 1195.339,332.971 1200.788,332.971 1200.788,335.49 1202.673,335.49 1202.673,332.971 
	1204.66,332.971 1204.66,331.281 1202.673,331.281 "/>
<path fill="#FFFFFF" d="M498.023,335.49l-3.5-4.978c1.907-0.295,3.086-1.454,3.086-3.48c0-2.363-1.612-3.621-4.109-3.621h-4.664
	v12.078h2.043v-4.899h1.457l3.368,4.899H498.023z M490.879,328.881v-3.7h2.582c1.355,0,2.124,0.728,2.124,1.852
	c0,1.121-0.768,1.849-2.124,1.849H490.879z"/>
<polygon fill="#FFFFFF" points="596.536,335.49 598.421,335.49 598.421,332.971 600.406,332.971 600.406,331.281 598.421,331.281 
	598.421,328.448 596.536,328.448 596.536,331.281 593.309,331.281 597.694,323.412 595.631,323.412 591.087,331.557 
	591.087,332.971 596.536,332.971 "/>
<polygon fill="#FFFFFF" points="1397.682,336.748 1402.146,336.748 1402.146,334.98 1399.529,334.98 1399.529,324.079 
	1402.146,324.079 1402.146,322.31 1397.682,322.31 "/>
<polygon fill="#FFFFFF" points="1327.859,325.22 1333.721,325.22 1329.59,335.49 1331.636,335.49 1335.806,324.964 
	1335.806,323.412 1327.859,323.412 "/>
<path fill="#FFFFFF" d="M691.808,269.801c0-2.363-1.61-3.62-4.108-3.62h-4.663v12.078h2.043v-4.899h1.457l3.366,4.899h2.319
	l-3.5-4.978C690.63,272.985,691.808,271.827,691.808,269.801z M685.08,271.649v-3.7h2.58c1.357,0,2.125,0.729,2.125,1.852
	c0,1.121-0.769,1.849-2.125,1.849H685.08z"/>
<path fill="#FFFFFF" d="M388.763,270.292c-0.924,0-1.692,0.334-2.066,0.629v-2.933h5.135v-1.808h-6.804v6.805h1.551
	c0.412-0.512,1.083-0.944,1.968-0.944c1.319,0,2.125,0.964,2.125,2.323c0,1.358-0.807,2.322-2.085,2.322
	c-1.358,0-2.085-0.827-2.242-2.046h-1.986c0.197,2.321,1.829,3.814,4.228,3.814c2.342,0,3.991-1.69,3.991-4.091
	C392.578,271.943,391.025,270.292,388.763,270.292z"/>
<polygon fill="#FFFFFF" points="566.6,271.158 560.52,271.158 560.52,266.181 558.475,266.181 558.475,278.258 560.52,278.258 
	560.52,272.966 566.6,272.966 566.6,278.258 568.645,278.258 568.645,266.181 566.6,266.181 "/>
<path fill="#FFFFFF" d="M1254.6,273.224c0,2.321-0.983,3.403-2.794,3.403c-1.812,0-2.795-1.082-2.795-3.403v-7.043h-2.045v7.259
	c0,3.326,1.966,5.016,4.84,5.016c2.892,0,4.838-1.69,4.838-4.996v-7.279h-2.044V273.224z"/>
<polygon fill="#FFFFFF" points="1127.422,266.181 1124.236,271.591 1121.033,266.181 1118.81,266.181 1123.176,273.439 
	1123.176,278.258 1125.198,278.258 1125.198,273.439 1129.586,266.181 "/>
<polygon fill="#FFFFFF" points="1346.12,216.818 1344.134,216.818 1344.134,213.986 1342.246,213.986 1342.246,216.818 
	1339.02,216.818 1343.407,208.949 1341.341,208.949 1336.797,217.094 1336.797,218.508 1342.246,218.508 1342.246,221.027 
	1344.134,221.027 1344.134,218.508 1346.12,218.508 "/>
<polygon fill="#FFFFFF" points="1066.498,221.027 1066.498,210.757 1070.512,210.757 1070.512,208.949 1060.441,208.949 
	1060.441,210.757 1064.455,210.757 1064.455,221.027 "/>
<path fill="#FFFFFF" d="M1177.26,213.119c-1.28,0-2.342,0.65-2.775,1.553v-0.216c0-2.024,1.062-4.033,2.697-4.033
	c0.983,0,1.573,0.531,1.85,1.398h2.045c-0.492-1.949-1.69-3.069-3.895-3.069c-2.775,0-4.505,2.735-4.505,6.49
	c0,1.497,0.217,2.599,0.729,3.662c0.804,1.613,2.162,2.32,3.639,2.32c2.637,0,4.13-1.887,4.13-4.091
	C1181.174,214.987,1179.7,213.119,1177.26,213.119z M1177.064,219.514c-1.38,0-2.284-0.944-2.284-2.341
	c0-1.458,0.904-2.402,2.284-2.402c1.338,0,2.242,0.964,2.242,2.402C1179.307,218.569,1178.402,219.514,1177.064,219.514z"/>
<path fill="#FFFFFF" d="M925.758,163.993c3.269,0,5.588-2.634,5.588-6.237c0-3.62-2.319-6.234-5.588-6.234
	c-3.266,0-5.565,2.615-5.565,6.234C920.192,161.358,922.492,163.993,925.758,163.993z M925.758,153.349
	c2.126,0,3.523,1.85,3.523,4.407c0,2.56-1.397,4.409-3.523,4.409c-2.125,0-3.501-1.85-3.501-4.409
	C922.257,155.199,923.633,153.349,925.758,153.349z"/>
<path fill="#FFFFFF" d="M451.599,157.619c0.962-0.411,1.57-1.454,1.57-2.715c0-1.967-1.396-3.382-3.774-3.382
	c-2.262,0-3.776,1.553-4.031,3.657h2.005c0.079-1.062,0.769-1.889,2.047-1.889c1.16,0,1.848,0.768,1.848,1.731
	c0,1.144-0.864,1.753-2.026,1.753h-0.708v1.71h0.767c1.278,0,2.183,0.728,2.183,1.889c0,1.123-0.865,1.871-2.085,1.871
	c-1.397,0-2.183-0.846-2.321-2.068h-1.986c0.136,2.265,1.848,3.817,4.328,3.817c2.498,0,3.989-1.592,3.989-3.64
	C453.405,159.232,452.836,158.13,451.599,157.619z"/>
<polygon fill="#FFFFFF" points="346.491,161.968 340.608,161.968 340.608,158.503 345.941,158.503 345.941,156.715 340.608,156.715 
	340.608,153.526 346.491,153.526 346.491,151.718 338.604,151.718 338.604,163.795 346.491,163.795 "/>
<polygon fill="#FFFFFF" points="795.016,151.718 795.016,163.795 796.979,163.795 796.979,155.003 803.158,163.795 804.73,163.795 
	804.73,151.718 802.767,151.718 802.767,160.097 796.94,151.718 "/>
<rect x="1197.264" y="94.486" fill="#FFFFFF" width="2.045" height="12.078"/>
<path fill="#FFFFFF" d="M862.648,100.526c0-3.681-2.3-6.041-5.863-6.041h-4.069v12.078h4.069
	C860.348,106.564,862.648,104.205,862.648,100.526z M854.759,104.735v-8.441h1.949c2.539,0,3.895,1.633,3.895,4.232
	c0,2.577-1.355,4.209-3.895,4.209H854.759z"/>
<path fill="#FFFFFF" d="M1002.749,104.991c-1.357,0-2.086-0.826-2.243-2.046h-1.985c0.197,2.322,1.828,3.815,4.229,3.815
	c2.344,0,3.992-1.69,3.992-4.091c0-2.421-1.551-4.072-3.814-4.072c-0.926,0-1.692,0.334-2.068,0.629v-2.933h5.137v-1.809h-6.806
	v6.805h1.553c0.413-0.512,1.082-0.944,1.968-0.944c1.318,0,2.126,0.964,2.126,2.323S1004.028,104.991,1002.749,104.991z"/>
<polygon fill="#FFFFFF" points="1097.549,151.737 1103.41,151.737 1099.277,162.007 1101.324,162.007 1105.494,151.481 
	1105.494,149.929 1097.549,149.929 "/>
<polygon fill="#FFFFFF" points="1399.505,106.564 1401.551,106.564 1401.551,101.665 1406.843,101.665 1406.843,99.876 
	1401.551,99.876 1401.551,96.294 1407.216,96.294 1407.216,94.486 1399.505,94.486 "/>
<path fill="#FFFFFF" d="M396.03,102.078h2.636c-0.257,1.694-1.357,2.874-3.186,2.874c-2.245,0-3.624-1.869-3.624-4.426
	c0-2.558,1.399-4.389,3.545-4.389c1.61,0,2.417,0.826,2.91,2.126h2.043c-0.47-2.402-2.182-3.975-4.953-3.975
	c-3.149,0-5.606,2.517-5.606,6.237c0,3.717,2.438,6.234,5.685,6.234c2.95,0,5.131-2.143,5.131-5.487v-0.945h-4.582V102.078z"/>
<polygon fill="#FFFFFF" points="1299.619,160.096 1293.793,151.717 1291.866,151.717 1291.866,163.795 1293.831,163.795 
	1293.831,155.003 1300.011,163.795 1301.582,163.795 1301.582,151.717 1299.619,151.717 "/>
<polygon fill="#FFFFFF" points="561.151,106.564 563.194,106.564 563.194,96.294 567.208,96.294 567.208,94.486 557.137,94.486 
	557.137,96.294 561.151,96.294 "/>
<path fill="#FFFFFF" d="M723.658,101.665h1.457l3.364,4.899h2.321l-3.5-4.978c1.909-0.295,3.086-1.454,3.086-3.48
	c0-2.363-1.61-3.621-4.109-3.621h-4.662v12.078h2.043V101.665z M723.658,96.255h2.578c1.359,0,2.125,0.728,2.125,1.852
	c0,1.121-0.767,1.849-2.125,1.849h-2.578V96.255z"/>
<polygon fill="#FFFFFF" points="1189.687,45.633 1183.862,37.254 1181.936,37.254 1181.936,49.333 1183.902,49.333 1183.902,40.541 
	1190.081,49.333 1191.653,49.333 1191.653,37.254 1189.687,37.254 "/>
<polygon fill="#FFFFFF" points="801.239,47.504 795.435,47.504 795.435,37.254 793.392,37.254 793.392,49.333 801.239,49.333 "/>
<polygon fill="#FFFFFF" points="441.846,42.744 446.726,37.254 444.148,37.254 439.132,43.039 439.132,37.254 437.089,37.254 
	437.089,49.333 439.132,49.333 439.132,45.575 440.372,44.16 444.344,49.333 446.903,49.333 "/>
<polygon fill="#FFFFFF" points="698.546,49.333 703.108,37.254 701.022,37.254 697.601,46.676 694.178,37.254 692.035,37.254 
	696.597,49.333 "/>
<polygon fill="#FFFFFF" points="346.453,47.504 340.649,47.504 340.649,37.254 338.604,37.254 338.604,49.333 346.453,49.333 "/>
<polygon fill="#FFFFFF" points="544.839,45.633 539.013,37.254 537.088,37.254 537.088,49.333 539.053,49.333 539.053,40.541 
	545.232,49.333 546.804,49.333 546.804,37.254 544.839,37.254 "/>
<polygon fill="#FFFFFF" points="935.84,391.947 935.84,379.868 934.642,379.868 931.024,381.698 931.024,383.765 933.857,382.327 
	933.857,391.947 "/>
<path fill="#FFFFFF" d="M860.18,385.908c0,3.68,1.827,6.234,4.562,6.234c2.737,0,4.562-2.555,4.562-6.234
	c0-3.681-1.825-6.235-4.562-6.235C862.007,379.673,860.18,382.228,860.18,385.908z M867.303,385.908
	c0,2.539-0.788,4.387-2.561,4.387c-1.791,0-2.578-1.848-2.578-4.387c0-2.54,0.788-4.388,2.578-4.388
	C866.515,381.521,867.303,383.368,867.303,385.908z"/>
<polygon fill="#FFFFFF" points="1002.714,379.868 998.169,388.015 998.169,389.429 1003.618,389.429 1003.618,391.947 
	1005.503,391.947 1005.503,389.429 1007.49,389.429 1007.49,387.738 1005.503,387.738 1005.503,384.905 1003.618,384.905 
	1003.618,387.738 1000.393,387.738 1004.776,379.868 "/>
<path fill="#FFFFFF" d="M790.202,390.609v1.338h8.045v-1.788h-5.254l2.599-2.893c1.239-1.399,2.458-2.62,2.458-4.094
	c0-2.145-1.415-3.5-3.835-3.5c-2.244,0-3.795,1.571-4.033,3.814h2.104c0.079-1.141,0.729-2.007,1.928-2.007
	c1.143,0,1.85,0.707,1.85,1.712c0,1.042-1.041,2.065-2.283,3.445L790.202,390.609z"/>
<polygon fill="#FFFFFF" points="788.136,322.638 788.136,334.715 790.181,334.715 790.181,329.423 796.261,329.423 796.261,334.715 
	798.306,334.715 798.306,322.638 796.261,322.638 796.261,327.614 790.181,327.614 790.181,322.638 "/>
<path fill="#FFFFFF" d="M728.269,331.254c0-1.81-1.24-2.912-3.126-3.346l-2.106-0.492c-1.083-0.256-1.595-0.768-1.595-1.573
	c0-1.003,0.886-1.672,2.185-1.672c1.438,0,2.204,0.708,2.519,1.613h2.045c-0.433-2.007-1.965-3.342-4.585-3.342
	c-2.438,0-4.109,1.532-4.109,3.579c0,1.947,1.336,2.854,3.009,3.248l2.047,0.492c1.259,0.295,1.75,0.787,1.75,1.633
	c0,1.121-0.924,1.79-2.342,1.79c-1.318,0-2.342-0.57-2.733-1.811h-2.085c0.433,2.244,2.26,3.54,4.818,3.54
	C726.459,334.912,728.269,333.517,728.269,331.254z"/>
<path fill="#FFFFFF" d="M869.325,328.677c0-3.622-2.32-6.236-5.586-6.236c-3.266,0-5.566,2.614-5.566,6.236
	c0,3.601,2.3,6.234,5.566,6.234C867.005,334.912,869.325,332.278,869.325,328.677z M860.238,328.677c0-2.56,1.376-4.408,3.501-4.408
	c2.127,0,3.523,1.849,3.523,4.408c0,2.558-1.396,4.407-3.523,4.407C861.614,333.084,860.238,331.235,860.238,328.677z"/>
<polygon fill="#FFFFFF" points="935.389,326.08 937.672,334.715 939.56,334.715 942.669,322.638 940.7,322.638 938.517,331.53 
	936.236,322.638 934.582,322.638 932.283,331.53 930.099,322.638 928.092,322.638 931.2,334.715 933.069,334.715 "/>
<path fill="#FFFFFF" d="M792.74,267.057c1.614,0,2.419,0.826,2.91,2.126h2.045c-0.472-2.401-2.183-3.974-4.955-3.974
	c-3.149,0-5.606,2.517-5.606,6.237c0,3.718,2.437,6.234,5.685,6.234c2.95,0,5.131-2.142,5.131-5.487v-0.945h-4.579v1.749h2.634
	c-0.255,1.694-1.357,2.875-3.186,2.875c-2.244,0-3.622-1.872-3.622-4.427C789.196,268.888,790.593,267.057,792.74,267.057z"/>
<path fill="#FFFFFF" d="M927.208,277.484h2.062l1.24-3.345h4.623l1.24,3.345h2.084l-4.643-12.078h-1.967L927.208,277.484z
	 M934.465,272.371h-3.305l1.652-4.466L934.465,272.371z"/>
<path fill="#FFFFFF" d="M1007.962,271.446c0-3.681-2.299-6.04-5.859-6.04h-4.071v12.078h4.071
	C1005.663,277.484,1007.962,275.125,1007.962,271.446z M1000.073,275.656v-8.442h1.95c2.538,0,3.896,1.633,3.896,4.232
	c0,2.577-1.358,4.21-3.896,4.21H1000.073z"/>
<path fill="#FFFFFF" d="M867.377,269.026c0-2.363-1.612-3.62-4.109-3.62h-4.662v12.078h2.042v-4.899h1.458l3.366,4.899h2.319
	l-3.5-4.978C866.199,272.211,867.377,271.052,867.377,269.026z M863.228,270.875h-2.58v-3.7h2.58c1.357,0,2.126,0.728,2.126,1.851
	C865.354,270.147,864.585,270.875,863.228,270.875z"/>
<rect x="826.4" y="208.175" fill="#FFFFFF" width="2.045" height="12.078"/>
<path fill="#FFFFFF" d="M893.798,220.449c2.716,0,4.466-1.572,4.918-4.012h-2.005c-0.474,1.298-1.299,2.164-2.913,2.164
	c-2.143,0-3.422-1.869-3.422-4.387c0-2.54,1.298-4.389,3.422-4.389c1.614,0,2.439,0.866,2.913,2.144h2.005
	c-0.452-2.419-2.183-3.992-4.918-3.992c-3.107,0-5.486,2.517-5.486,6.237C888.312,217.932,890.69,220.449,893.798,220.449z"/>
<polygon fill="#FFFFFF" points="755.889,211.853 759.215,220.252 760.671,220.252 763.92,211.853 763.92,220.252 765.883,220.252 
	765.883,208.175 763.602,208.175 759.962,217.458 756.282,208.175 753.945,208.175 753.945,220.252 755.889,220.252 "/>
<path fill="#FFFFFF" d="M960.611,216.908h4.621l1.24,3.345h2.085l-4.644-12.078h-1.965l-4.643,12.078h2.064L960.611,216.908z
	 M962.913,210.673l1.65,4.466h-3.303L962.913,210.673z"/>
<polygon fill="#FFFFFF" points="798.432,437.876 795.854,437.876 790.838,443.657 790.838,437.876 788.794,437.876 788.794,449.952 
	790.838,449.952 790.838,446.196 792.078,444.778 796.053,449.952 798.61,449.952 793.554,443.363 "/>
<path fill="#FFFFFF" d="M926.845,441.495c0-2.361-1.61-3.619-4.111-3.619h-4.66v12.076h2.044v-4.897h1.456l3.366,4.897h2.319
	l-3.5-4.979C925.666,444.681,926.845,443.521,926.845,441.495z M920.117,443.343v-3.699h2.577c1.359,0,2.126,0.73,2.126,1.852
	s-0.767,1.848-2.126,1.848H920.117z"/>
<polygon fill="#FFFFFF" points="643.878,163.598 645.922,163.598 645.922,158.7 651.214,158.7 651.214,156.912 645.922,156.912 
	645.922,153.329 651.588,153.329 651.588,151.521 643.878,151.521 "/>
<polygon fill="#FFFFFF" points="534.215,210.757 538.229,210.757 538.229,221.027 540.272,221.027 540.272,210.757 544.286,210.757 
	544.286,208.949 534.215,208.949 "/>
<polygon fill="#FFFFFF" points="349.959,446.256 344.133,437.876 342.208,437.876 342.208,449.952 344.173,449.952 344.173,441.159 
	350.353,449.952 351.924,449.952 351.924,437.876 349.959,437.876 "/>
<path fill="#FFFFFF" d="M1079.72,37.255l-4.641,12.078h2.062l1.24-3.344h4.623l1.238,3.344h2.086l-4.643-12.078H1079.72z
	 M1079.031,44.22l1.652-4.466l1.652,4.466H1079.031z"/>
<polygon fill="#FFFFFF" points="942.207,45.576 943.447,44.159 947.421,49.333 949.978,49.333 944.923,42.743 949.802,37.255 
	947.226,37.255 942.207,43.038 942.207,37.255 940.164,37.255 940.164,49.333 942.207,49.333 "/>
<path fill="#FFFFFF" d="M1691.056,559.381c0,2.323-0.983,3.402-2.797,3.402c-1.809,0-2.794-1.079-2.794-3.402v-7.042h-2.044v7.259
	c0,3.325,1.964,5.016,4.838,5.016c2.895,0,4.839-1.69,4.839-4.995v-7.279h-2.042V559.381z"/>
<path fill="#FFFFFF" d="M1524.477,558.158c1.021-0.391,1.845-1.355,1.845-2.714c0-2.124-1.768-3.305-3.795-3.305
	c-2.028,0-3.796,1.181-3.796,3.305c0,1.358,0.825,2.323,1.847,2.714c-1.179,0.297-2.22,1.359-2.22,2.973
	c0,2.184,1.846,3.482,4.169,3.482c2.324,0,4.169-1.299,4.169-3.482C1526.695,559.518,1525.654,558.455,1524.477,558.158z
	 M1522.526,553.771c0.983,0,1.852,0.632,1.852,1.771c0,1.104-0.868,1.732-1.852,1.732s-1.85-0.629-1.85-1.732
	C1520.677,554.403,1521.543,553.771,1522.526,553.771z M1522.526,562.962c-1.26,0-2.206-0.748-2.206-1.988
	c0-1.261,0.946-1.987,2.206-1.987c1.259,0,2.206,0.727,2.206,1.987C1524.732,562.214,1523.785,562.962,1522.526,562.962z"/>
<path fill="#FFFFFF" d="M1541.88,494.912c-3.267,0-5.568,2.612-5.568,6.235c0,3.601,2.302,6.231,5.568,6.231
	c3.266,0,5.585-2.631,5.585-6.231C1547.465,497.524,1545.146,494.912,1541.88,494.912z M1541.88,505.556
	c-2.127,0-3.504-1.852-3.504-4.408c0-2.561,1.377-4.412,3.504-4.412c2.125,0,3.521,1.852,3.521,4.412
	C1545.4,503.704,1544.005,505.556,1541.88,505.556z"/>
<path fill="#FFFFFF" d="M1682.265,441.495c0-2.361-1.609-3.619-4.107-3.619h-4.663v12.076h2.043v-4.897h1.457l3.365,4.897h2.319
	l-3.5-4.979C1681.088,444.681,1682.265,443.521,1682.265,441.495z M1675.537,443.347v-3.703h2.58c1.356,0,2.126,0.73,2.126,1.852
	s-0.77,1.852-2.126,1.852H1675.537z"/>
<polygon fill="#FFFFFF" points="1472.576,449.952 1480.464,449.952 1480.464,448.125 1474.581,448.125 1474.581,444.66 
	1479.913,444.66 1479.913,442.871 1474.581,442.871 1474.581,439.682 1480.464,439.682 1480.464,437.876 1472.576,437.876 "/>
<polygon fill="#FFFFFF" points="1876.79,443.283 1873.585,437.876 1871.362,437.876 1875.729,445.135 1875.729,449.952 
	1877.753,449.952 1877.753,445.135 1882.139,437.876 1879.977,437.876 "/>
<polygon fill="#FFFFFF" points="1569.526,382.451 1575.388,382.451 1571.257,392.721 1573.304,392.721 1577.473,382.196 
	1577.473,380.644 1569.526,380.644 "/>
<polygon fill="#FFFFFF" points="1934.431,392.721 1936.473,392.721 1936.473,380.644 1934.431,380.644 1934.431,385.621 
	1928.348,385.621 1928.348,380.644 1926.306,380.644 1926.306,392.721 1928.348,392.721 1928.348,387.429 1934.431,387.429 "/>
<path fill="#FFFFFF" d="M1677.585,335.49h2.317l-3.501-4.978c1.91-0.293,3.087-1.453,3.087-3.481c0-2.361-1.61-3.617-4.108-3.617
	h-4.661v12.076h2.042v-4.899h1.458L1677.585,335.49z M1672.761,325.18h2.579c1.357,0,2.126,0.73,2.126,1.852
	c0,1.121-0.769,1.851-2.126,1.851h-2.579V325.18z"/>
<polygon fill="#FFFFFF" points="1476.964,328.821 1473.759,323.414 1471.535,323.414 1475.901,330.671 1475.901,335.49 
	1477.924,335.49 1477.924,330.671 1482.312,323.414 1480.149,323.414 "/>
<polygon fill="#FFFFFF" points="1599.149,271.159 1593.068,271.159 1593.068,266.181 1591.024,266.181 1591.024,278.258 
	1593.068,278.258 1593.068,272.966 1599.149,272.966 1599.149,278.258 1601.193,278.258 1601.193,266.181 1599.149,266.181 "/>
<path fill="#FFFFFF" d="M1953.706,267.832c1.613,0,2.438,0.866,2.911,2.145h2.007c-0.452-2.419-2.184-3.993-4.918-3.993
	c-3.109,0-5.484,2.517-5.484,6.235c0,3.72,2.375,6.237,5.484,6.237c2.714,0,4.466-1.572,4.918-4.012h-2.007
	c-0.474,1.298-1.298,2.164-2.911,2.164c-2.145,0-3.424-1.869-3.424-4.389C1950.282,269.681,1951.582,267.832,1953.706,267.832z"/>
<polygon fill="#FFFFFF" points="1751.689,275.604 1748.267,266.181 1746.123,266.181 1750.685,278.258 1752.631,278.258 
	1757.196,266.181 1755.11,266.181 "/>
<rect x="1878.88" y="208.951" fill="#FFFFFF" width="2.045" height="12.078"/>
<polygon fill="#FFFFFF" points="1634.521,151.718 1626.576,151.718 1626.576,153.526 1632.436,153.526 1628.307,163.795 
	1630.354,163.795 1634.521,153.271 "/>
<path fill="#FFFFFF" d="M1796.789,159.311h2.636c-0.257,1.694-1.359,2.873-3.186,2.873c-2.246,0-3.625-1.871-3.625-4.426
	c0-2.559,1.399-4.389,3.545-4.389c1.613,0,2.418,0.826,2.909,2.125h2.047c-0.472-2.401-2.183-3.974-4.956-3.974
	c-3.148,0-5.607,2.517-5.607,6.237c0,3.718,2.438,6.235,5.688,6.235c2.948,0,5.131-2.143,5.131-5.489v-0.943h-4.581V159.311z"/>
<path fill="#FFFFFF" d="M1882.687,101.53c0,2.321-0.981,3.404-2.794,3.404c-1.81,0-2.795-1.083-2.795-3.404v-7.042h-2.043v7.259
	c0,3.325,1.966,5.013,4.838,5.013c2.894,0,4.84-1.688,4.84-4.994v-7.278h-2.046V101.53z"/>
<path fill="#FFFFFF" d="M1694.152,94.488h-4.663v12.076h2.043v-4.506h2.62c2.497,0,4.129-1.317,4.129-3.776
	C1698.281,95.784,1696.649,94.488,1694.152,94.488z M1694.112,100.291h-2.58v-4.037h2.58c1.416,0,2.145,0.828,2.145,2.028
	C1696.257,99.443,1695.528,100.291,1694.112,100.291z"/>
<path fill="#FFFFFF" d="M1541.88,94.291c-3.267,0-5.568,2.613-5.568,6.235c0,3.602,2.302,6.233,5.568,6.233
	c3.266,0,5.585-2.632,5.585-6.233C1547.465,96.904,1545.146,94.291,1541.88,94.291z M1541.88,104.935
	c-2.127,0-3.504-1.852-3.504-4.408c0-2.559,1.377-4.41,3.504-4.41c2.125,0,3.521,1.852,3.521,4.41
	C1545.4,103.083,1544.005,104.935,1541.88,104.935z"/>
<path fill="#FFFFFF" d="M1748.323,44.355c1.908-0.295,3.087-1.453,3.087-3.481c0-2.361-1.612-3.619-4.11-3.619h-4.663v12.078h2.044
	v-4.899h1.456l3.368,4.899h2.318L1748.323,44.355z M1744.681,42.724v-3.699h2.581c1.355,0,2.124,0.727,2.124,1.85
	s-0.769,1.85-2.124,1.85H1744.681z"/>
<polygon fill="#FFFFFF" points="1473.323,49.333 1475.371,49.333 1479.538,38.808 1479.538,37.255 1471.593,37.255 1471.593,39.063 
	1477.452,39.063 "/>
<g>
	<path fill="none" d="M-71.216,496.62c-1.338,0-2.242,0.946-2.242,2.34c0,1.439,0.904,2.403,2.242,2.403
		c1.38,0,2.285-0.946,2.285-2.403C-68.931,497.566-69.836,496.62-71.216,496.62z"/>
	<path fill="none" d="M269.784,105.111c1.259,0,2.204-0.749,2.204-1.989c0-1.257-0.945-1.988-2.204-1.988
		c-1.261,0-2.204,0.73-2.204,1.988C267.58,104.362,268.522,105.111,269.784,105.111z"/>
	<path fill="none" d="M-159.104,100.743c1.376,0,2.281-0.945,2.281-2.401c0-1.396-0.905-2.342-2.281-2.342
		c-1.34,0-2.244,0.947-2.244,2.342C-161.349,99.779-160.444,100.743-159.104,100.743z"/>
	<path fill="none" d="M13.562,98.105c0-1.121-0.767-1.852-2.125-1.852H8.859v3.703h2.578C12.796,99.957,13.562,99.227,13.562,98.105
		z"/>
	<path fill="none" d="M269.784,99.426c0.983,0,1.85-0.632,1.85-1.732c0-1.143-0.866-1.773-1.85-1.773
		c-0.985,0-1.852,0.63-1.852,1.773C267.932,98.793,268.798,99.426,269.784,99.426z"/>
	<polygon fill="none" points="-224.026,158.682 -220.722,158.682 -222.374,154.217 	"/>
	<path fill="none" d="M291.046,386.465c-1.378,0-2.283,0.945-2.283,2.4c0,1.398,0.904,2.344,2.283,2.344
		c1.338,0,2.244-0.945,2.244-2.344C293.291,387.429,292.384,386.465,291.046,386.465z"/>
	<path fill="none" d="M203.376,153.349c-2.126,0-3.504,1.85-3.504,4.407c0,2.559,1.378,4.408,3.504,4.408
		c2.125,0,3.522-1.85,3.522-4.408C206.898,155.199,205.501,153.349,203.376,153.349z"/>
	<path fill="none" d="M322.392,553.97c-2.126,0-3.502,1.849-3.502,4.405c0,2.561,1.376,4.408,3.502,4.408
		c2.125,0,3.522-1.848,3.522-4.408C325.915,555.818,324.518,553.97,322.392,553.97z"/>
	<path fill="none" d="M116.31,500.047c0.983,0,1.851-0.633,1.851-1.732c0-1.143-0.868-1.774-1.851-1.774s-1.852,0.632-1.852,1.774
		C114.458,499.414,115.326,500.047,116.31,500.047z"/>
	<path fill="none" d="M179.776,554.106h-2.58v4.034h2.58c1.416,0,2.145-0.845,2.145-2.008
		C181.921,554.935,181.192,554.106,179.776,554.106z"/>
	<path fill="none" d="M116.31,501.755c-1.259,0-2.206,0.73-2.206,1.987c0,1.24,0.947,1.988,2.206,1.988
		c1.261,0,2.204-0.748,2.204-1.988C118.514,502.485,117.57,501.755,116.31,501.755z"/>
	<path fill="none" d="M63.366,215.597c-1.259,0-2.204,0.729-2.204,1.988c0,1.24,0.945,1.989,2.204,1.989
		c1.261,0,2.206-0.749,2.206-1.989C65.572,216.325,64.627,215.597,63.366,215.597z"/>
	<path fill="none" d="M63.366,213.887c0.985,0,1.852-0.63,1.852-1.73c0-1.144-0.866-1.773-1.852-1.773
		c-0.983,0-1.85,0.629-1.85,1.773C61.516,213.256,62.383,213.887,63.366,213.887z"/>
	<polygon fill="#FFFFFF" points="-218.142,552.339 -220.184,552.339 -220.184,564.415 -212.338,564.415 -212.338,562.588 
		-218.142,562.588 	"/>
	<path fill="#FFFFFF" d="M322.392,552.14c-3.266,0-5.566,2.616-5.566,6.235c0,3.602,2.3,6.238,5.566,6.238
		c3.268,0,5.587-2.637,5.587-6.238C327.979,554.756,325.66,552.14,322.392,552.14z M322.392,562.783
		c-2.126,0-3.502-1.848-3.502-4.408c0-2.557,1.376-4.405,3.502-4.405c2.125,0,3.522,1.849,3.522,4.405
		C325.915,560.936,324.518,562.783,322.392,562.783z"/>
	<path fill="#FFFFFF" d="M179.816,552.339h-4.664v12.076h2.043v-4.503h2.62c2.498,0,4.129-1.317,4.129-3.779
		C183.945,553.635,182.314,552.339,179.816,552.339z M179.776,558.141h-2.58v-4.034h2.58c1.416,0,2.145,0.828,2.145,2.026
		C181.921,557.296,181.192,558.141,179.776,558.141z"/>
	<polygon fill="#FFFFFF" points="37.358,565.676 41.82,565.676 41.82,563.904 39.204,563.904 39.204,553.006 41.82,553.006 
		41.82,551.235 37.358,551.235 	"/>
	<path fill="#FFFFFF" d="M118.259,500.931c1.021-0.395,1.846-1.359,1.846-2.718c0-2.124-1.768-3.301-3.795-3.301
		c-2.026,0-3.795,1.177-3.795,3.301c0,1.358,0.824,2.323,1.846,2.718c-1.179,0.293-2.22,1.355-2.22,2.969
		c0,2.184,1.846,3.479,4.169,3.479c2.323,0,4.169-1.296,4.169-3.479C120.479,502.286,119.438,501.224,118.259,500.931z
		 M116.31,496.54c0.983,0,1.851,0.632,1.851,1.774c0,1.1-0.868,1.732-1.851,1.732s-1.852-0.633-1.852-1.732
		C114.458,497.172,115.326,496.54,116.31,496.54z M116.31,505.73c-1.259,0-2.206-0.748-2.206-1.988c0-1.257,0.947-1.987,2.206-1.987
		c1.261,0,2.204,0.73,2.204,1.987C118.514,504.982,117.57,505.73,116.31,505.73z"/>
	<path fill="#FFFFFF" d="M-71.195,494.912c-2.637,0-4.13,1.883-4.13,4.09c0,2.146,1.474,4.011,3.914,4.011
		c1.278,0,2.342-0.646,2.775-1.552v0.217c0,2.026-1.062,4.035-2.697,4.035c-0.985,0-1.574-0.535-1.85-1.401h-2.045
		c0.491,1.949,1.69,3.067,3.895,3.067c2.775,0,4.504-2.731,4.504-6.487c0-1.498-0.217-2.599-0.729-3.664
		C-68.36,495.617-69.719,494.912-71.195,494.912z M-71.216,501.363c-1.338,0-2.242-0.964-2.242-2.403c0-1.394,0.904-2.34,2.242-2.34
		c1.38,0,2.285,0.946,2.285,2.34C-68.931,500.417-69.836,501.363-71.216,501.363z"/>
	<polygon fill="#FFFFFF" points="272.344,442.854 266.263,442.854 266.263,437.876 264.219,437.876 264.219,449.952 
		266.263,449.952 266.263,444.66 272.344,444.66 272.344,449.952 274.388,449.952 274.388,437.876 272.344,437.876 	"/>
	<path fill="#FFFFFF" d="M32.969,445.784c0,1.712-0.669,2.498-2.047,2.498c-1.16,0-1.791-0.688-1.928-1.848H26.87
		c0.176,2.145,1.495,3.716,4.092,3.716c2.479,0,4.05-1.494,4.05-4.366v-7.908h-2.043V445.784z"/>
	<polygon fill="#FFFFFF" points="-154.164,437.876 -156.425,437.876 -159.396,442.141 -162.308,437.876 -164.646,437.876 
		-160.575,443.797 -164.844,449.952 -162.562,449.952 -159.435,445.407 -156.307,449.952 -153.968,449.952 -158.254,443.755 	"/>
	<path fill="#FFFFFF" d="M149.803,439.524c1.612,0,2.438,0.866,2.912,2.146h2.007c-0.454-2.418-2.185-3.993-4.918-3.993
		c-3.109,0-5.488,2.519-5.488,6.235c0,3.721,2.379,6.238,5.488,6.238c2.714,0,4.464-1.571,4.918-4.013h-2.007
		c-0.473,1.299-1.299,2.165-2.912,2.165c-2.145,0-3.423-1.868-3.423-4.391C146.38,441.376,147.678,439.524,149.803,439.524z"/>
	<polygon fill="#FFFFFF" points="-70.393,382.475 -70.393,384.539 -67.56,383.103 -67.56,392.721 -65.576,392.721 -65.576,380.644 
		-66.774,380.644 	"/>
	<path fill="#FFFFFF" d="M291.244,384.814c-1.28,0-2.342,0.649-2.775,1.553v-0.217c0-2.024,1.062-4.032,2.697-4.032
		c0.983,0,1.574,0.53,1.85,1.396h2.043c-0.491-1.948-1.689-3.068-3.893-3.068c-2.775,0-4.504,2.733-4.504,6.49
		c0,1.497,0.217,2.599,0.727,3.663c0.805,1.609,2.162,2.319,3.64,2.319c2.638,0,4.131-1.889,4.131-4.093
		C295.158,386.682,293.684,384.814,291.244,384.814z M291.046,391.209c-1.378,0-2.283-0.945-2.283-2.344
		c0-1.455,0.904-2.4,2.283-2.4c1.338,0,2.244,0.964,2.244,2.4C293.291,390.264,292.384,391.209,291.046,391.209z"/>
	<path fill="#FFFFFF" d="M149.918,330.692v-7.278h-2.043v7.042c0,2.321-0.983,3.404-2.792,3.404c-1.813,0-2.796-1.083-2.796-3.404
		v-7.042h-2.043v7.259c0,3.325,1.965,5.013,4.84,5.013C147.973,335.686,149.918,333.998,149.918,330.692z"/>
	<polygon fill="#FFFFFF" points="-115.447,331.792 -121.272,323.414 -123.199,323.414 -123.199,335.49 -121.232,335.49 
		-121.232,326.698 -115.053,335.49 -113.48,335.49 -113.48,323.414 -115.447,323.414 	"/>
	<rect x="21.399" y="323.414" fill="#FFFFFF" width="2.043" height="12.078"/>
	<polygon fill="#FFFFFF" points="-8.535,271.59 -11.74,266.181 -13.963,266.181 -9.595,273.439 -9.595,278.258 -7.573,278.258 
		-7.573,273.439 -3.185,266.181 -5.351,266.181 	"/>
	<polygon fill="#FFFFFF" points="247.994,275.604 244.57,266.181 242.425,266.181 246.991,278.258 248.937,278.258 253.5,266.181 
		251.415,266.181 	"/>
	<path fill="#FFFFFF" d="M220.333,213.062c-0.926,0-1.692,0.332-2.066,0.627v-2.932h5.136v-1.806h-6.808v6.803h1.552
		c0.414-0.512,1.083-0.945,1.97-0.945c1.317,0,2.124,0.964,2.124,2.323c0,1.359-0.807,2.325-2.085,2.325
		c-1.359,0-2.087-0.83-2.244-2.049h-1.986c0.197,2.321,1.83,3.814,4.23,3.814c2.342,0,3.993-1.689,3.993-4.091
		C224.149,214.711,222.597,213.062,220.333,213.062z"/>
	<polygon fill="#FFFFFF" points="320.17,208.951 320.17,210.757 326.032,210.757 321.901,221.027 323.946,221.027 328.117,210.5 
		328.117,208.951 	"/>
	<polygon fill="#FFFFFF" points="-140.243,213.927 -146.327,213.927 -146.327,208.951 -148.368,208.951 -148.368,221.027 
		-146.327,221.027 -146.327,215.735 -140.243,215.735 -140.243,221.027 -138.202,221.027 -138.202,208.951 -140.243,208.951 	"/>
	<path fill="#FFFFFF" d="M65.315,214.772c1.022-0.395,1.848-1.357,1.848-2.716c0-2.124-1.77-3.303-3.797-3.303
		c-2.026,0-3.795,1.179-3.795,3.303c0,1.359,0.824,2.321,1.848,2.716c-1.181,0.295-2.222,1.355-2.222,2.971
		c0,2.184,1.848,3.479,4.169,3.479c2.323,0,4.171-1.296,4.171-3.479C67.537,216.128,66.494,215.068,65.315,214.772z M63.366,210.383
		c0.985,0,1.852,0.629,1.852,1.773c0,1.1-0.866,1.73-1.852,1.73c-0.983,0-1.85-0.63-1.85-1.73
		C61.516,211.012,62.383,210.383,63.366,210.383z M63.366,219.574c-1.259,0-2.204-0.749-2.204-1.989
		c0-1.259,0.945-1.988,2.204-1.988c1.261,0,2.206,0.729,2.206,1.988C65.572,218.825,64.627,219.574,63.366,219.574z"/>
	<path fill="#FFFFFF" d="M85.638,158.762c0,2.321-0.983,3.402-2.793,3.402c-1.811,0-2.796-1.081-2.796-3.402v-7.044h-2.043v7.259
		c0,3.326,1.965,5.016,4.84,5.016c2.893,0,4.838-1.69,4.838-4.995v-7.28h-2.045V158.762z"/>
	<path fill="#FFFFFF" d="M203.376,151.521c-3.268,0-5.566,2.615-5.566,6.235c0,3.602,2.298,6.237,5.566,6.237
		c3.266,0,5.585-2.635,5.585-6.237C208.961,154.135,206.642,151.521,203.376,151.521z M203.376,162.164
		c-2.126,0-3.504-1.85-3.504-4.408c0-2.557,1.378-4.407,3.504-4.407c2.125,0,3.522,1.85,3.522,4.407
		C206.898,160.314,205.501,162.164,203.376,162.164z"/>
	<path fill="#FFFFFF" d="M-218.812,163.795h2.085l-4.643-12.078h-1.968l-4.641,12.078h2.064l1.24-3.345h4.621L-218.812,163.795z
		 M-224.026,158.682l1.652-4.464l1.652,4.464H-224.026z"/>
	<polygon fill="#FFFFFF" points="-87.027,163.795 -79.14,163.795 -79.14,161.969 -85.022,161.969 -85.022,158.503 -79.69,158.503 
		-79.69,156.715 -85.022,156.715 -85.022,153.526 -79.14,153.526 -79.14,151.718 -87.027,151.718 	"/>
	<path fill="#FFFFFF" d="M15.587,98.105c0-2.361-1.612-3.617-4.11-3.617H6.814v12.076h2.045v-4.899h1.455l3.368,4.899h2.319
		l-3.5-4.978C14.408,101.293,15.587,100.133,15.587,98.105z M8.859,99.957v-3.703h2.578c1.359,0,2.125,0.73,2.125,1.852
		s-0.767,1.852-2.125,1.852H8.859z"/>
	<path fill="#FFFFFF" d="M-159.302,102.394c1.278,0,2.342-0.648,2.775-1.551v0.215c0,2.026-1.064,4.035-2.697,4.035
		c-0.985,0-1.576-0.533-1.852-1.399h-2.043c0.493,1.947,1.691,3.067,3.895,3.067c2.775,0,4.504-2.731,4.504-6.488
		c0-1.497-0.217-2.599-0.727-3.663c-0.807-1.612-2.164-2.317-3.64-2.317c-2.637,0-4.129,1.885-4.129,4.09
		C-163.214,100.528-161.744,102.394-159.302,102.394z M-159.104,95.999c1.376,0,2.281,0.947,2.281,2.342
		c0,1.457-0.905,2.401-2.281,2.401c-1.34,0-2.244-0.964-2.244-2.401C-161.349,96.946-160.444,95.999-159.104,95.999z"/>
	<path fill="#FFFFFF" d="M265.613,103.279c0,2.185,1.848,3.481,4.171,3.481c2.321,0,4.169-1.296,4.169-3.481
		c0-1.614-1.041-2.674-2.222-2.969c1.023-0.395,1.848-1.359,1.848-2.716c0-2.124-1.77-3.303-3.795-3.303
		c-2.028,0-3.797,1.179-3.797,3.303c0,1.357,0.826,2.321,1.848,2.716C266.655,100.605,265.613,101.665,265.613,103.279z
		 M269.784,95.92c0.983,0,1.85,0.63,1.85,1.773c0,1.1-0.866,1.732-1.85,1.732c-0.985,0-1.852-0.632-1.852-1.732
		C267.932,96.551,268.798,95.92,269.784,95.92z M269.784,101.134c1.259,0,2.204,0.73,2.204,1.988c0,1.24-0.945,1.989-2.204,1.989
		c-1.261,0-2.204-0.749-2.204-1.989C267.58,101.864,268.522,101.134,269.784,101.134z"/>
	<polygon fill="#FFFFFF" points="-86.129,49.333 -84.084,49.333 -79.915,38.808 -79.915,37.255 -87.86,37.255 -87.86,39.063 
		-81.999,39.063 	"/>
	<polygon fill="#FFFFFF" points="175.801,37.255 173.836,37.255 173.836,45.633 168.01,37.255 166.085,37.255 166.085,49.333 
		168.05,49.333 168.05,40.541 174.229,49.333 175.801,49.333 	"/>
	<polygon fill="#FFFFFF" points="64.821,47.504 59.017,47.504 59.017,37.255 56.974,37.255 56.974,49.333 64.821,49.333 	"/>
</g>
<path fill="#FFFFFF" d="M1605.008,41.367c-0.928,0-1.694,0.335-2.068,0.63v-2.934h5.136v-1.808h-6.807v6.805h1.553
	c0.412-0.512,1.082-0.943,1.97-0.943c1.317,0,2.124,0.964,2.124,2.321c0,1.359-0.807,2.323-2.086,2.323
	c-1.358,0-2.087-0.826-2.244-2.047h-1.985c0.197,2.323,1.827,3.816,4.229,3.816c2.341,0,3.993-1.691,3.993-4.092
	C1608.822,43.017,1607.268,41.367,1605.008,41.367z"/>
<path fill="#FFFFFF" d="M1512.233,208.752h-4.069v12.079h4.069c3.563,0,5.863-2.359,5.863-6.041
	C1518.097,211.112,1515.797,208.752,1512.233,208.752z M1512.157,219.003h-1.949v-8.441h1.949c2.539,0,3.895,1.633,3.895,4.229
	C1516.052,217.37,1514.696,219.003,1512.157,219.003z"/>
<path fill="#FFFFFF" d="M1637.12,216.662c0,1.712-0.669,2.498-2.047,2.498c-1.16,0-1.789-0.688-1.929-1.85h-2.124
	c0.179,2.145,1.496,3.717,4.093,3.717c2.479,0,4.05-1.493,4.05-4.365v-7.908h-2.043V216.662z"/>
<path fill="#FFFFFF" d="M1872.986,329.452c0-3.623-2.319-6.235-5.585-6.235c-3.269,0-5.568,2.613-5.568,6.235
	c0,3.601,2.3,6.233,5.568,6.233C1870.667,335.686,1872.986,333.053,1872.986,329.452z M1867.401,333.86
	c-2.128,0-3.504-1.852-3.504-4.408c0-2.559,1.376-4.41,3.504-4.41c2.123,0,3.521,1.851,3.521,4.41
	C1870.922,332.009,1869.524,333.86,1867.401,333.86z"/>
<polygon fill="#FFFFFF" points="1780.544,504.724 1777.121,495.303 1774.978,495.303 1779.54,507.379 1781.487,507.379 
	1786.05,495.303 1783.968,495.303 "/>
<polygon fill="#FFFFFF" points="1739.686,380.644 1737.109,380.644 1732.091,386.427 1732.091,380.644 1730.048,380.644 
	1730.048,392.721 1732.091,392.721 1732.091,388.965 1733.331,387.548 1737.307,392.721 1739.863,392.721 1734.808,386.132 "/>
<path fill="#FFFFFF" d="M1934.679,496.756c1.612,0,2.438,0.866,2.91,2.146h2.008c-0.454-2.421-2.185-3.989-4.918-3.989
	c-3.109,0-5.488,2.515-5.488,6.235c0,3.716,2.379,6.231,5.488,6.231c2.714,0,4.464-1.572,4.918-4.01h-2.008
	c-0.472,1.299-1.298,2.165-2.91,2.165c-2.145,0-3.424-1.872-3.424-4.387C1931.255,498.607,1932.553,496.756,1934.679,496.756z"/>
<path fill="#FFFFFF" d="M1930.792,47.858c-1.395,0-2.183-0.845-2.32-2.066h-1.988c0.139,2.263,1.85,3.816,4.328,3.816
	c2.5,0,3.993-1.593,3.993-3.638c0-1.123-0.569-2.226-1.81-2.735c0.964-0.412,1.573-1.455,1.573-2.714
	c0-1.97-1.396-3.385-3.776-3.385c-2.262,0-3.777,1.553-4.032,3.659h2.007c0.078-1.063,0.767-1.89,2.045-1.89
	c1.162,0,1.85,0.767,1.85,1.732c0,1.142-0.864,1.752-2.025,1.752h-0.708v1.71h0.767c1.279,0,2.184,0.727,2.184,1.89
	C1932.878,47.111,1932.014,47.858,1930.792,47.858z"/>
</svg>
